<svg xmlns="http://www.w3.org/2000/svg" width="100" height="100" viewBox="0 0 100 100">
  <defs>
    <linearGradient id="grad1" x1="0%" y1="0%" x2="100%" y2="100%">
      <stop offset="0%" style="stop-color:#2563eb;stop-opacity:1" />
      <stop offset="100%" style="stop-color:#7c3aed;stop-opacity:1" />
    </linearGradient>
  </defs>
  
  <!-- Fondo del cubo -->
  <rect width="100" height="100" fill="none"/>
  
  <!-- Cubo blockchain -->
  <g transform="translate(50, 30)">
    <!-- Cara frontal -->
    <path d="M -20,10 L -20,30 L 0,40 L 20,30 L 20,10 L 0,0 Z" 
          fill="url(#grad1)" opacity="0.9"/>
    
    <!-- Cara izquierda -->
    <path d="M -20,10 L -20,30 L 0,40 L 0,20 Z" 
          fill="#1e40af" opacity="0.7"/>
    
    <!-- Cara derecha -->
    <path d="M 20,10 L 20,30 L 0,40 L 0,20 Z" 
          fill="#6d28d9" opacity="0.8"/>
    
    <!-- Líneas de detalle -->
    <line x1="-20" y1="20" x2="0" y2="30" stroke="white" stroke-width="1" opacity="0.5"/>
    <line x1="20" y1="20" x2="0" y2="30" stroke="white" stroke-width="1" opacity="0.5"/>
    <line x1="0" y1="10" x2="0" y2="30" stroke="white" stroke-width="1" opacity="0.5"/>
  </g>
  
  <!-- Segundo cubo (más pequeño, arriba) -->
  <g transform="translate(50, 15)">
    <path d="M -12,6 L -12,18 L 0,24 L 12,18 L 12,6 L 0,0 Z" 
          fill="url(#grad1)" opacity="0.6"/>
  </g>
  
  <!-- Tercer cubo (conectado) -->
  <g transform="translate(50, 52)">
    <path d="M -15,8 L -15,22 L 0,30 L 15,22 L 15,8 L 0,0 Z" 
          fill="url(#grad1)" opacity="0.7"/>
  </g>
  
  <!-- Líneas de conexión -->
  <line x1="50" y1="39" x2="50" y2="52" stroke="#10b981" stroke-width="2" opacity="0.6" stroke-dasharray="2,2"/>
  <line x1="50" y1="15" x2="50" y2="30" stroke="#10b981" stroke-width="2" opacity="0.6" stroke-dasharray="2,2"/>
</svg>
